<?xml version="1.0" encoding="utf-8"?>
<!-- Generator: Adobe Illustrator 16.0.4, SVG Export Plug-In . SVG Version: 6.00 Build 0)  -->
<!DOCTYPE svg PUBLIC "-//W3C//DTD SVG 1.1//EN" "http://www.w3.org/Graphics/SVG/1.1/DTD/svg11.dtd">
<svg version="1.1" id="Capa_1" xmlns="http://www.w3.org/2000/svg" xmlns:xlink="http://www.w3.org/1999/xlink" x="0px" y="0px"
	 width="512px" height="512px" viewBox="0 0 512 512" enable-background="new 0 0 512 512" xml:space="preserve">
<path style="fill: #c3c3c3" d="M311.413,351.368c-11.056-1.759-11.308-32.157-11.308-32.157s32.484-32.158,39.564-75.401
	c19.045,0,30.809-45.973,11.761-62.148C352.226,164.635,375.911,48,256,48s-96.225,116.635-95.432,133.662
	c-19.047,16.175-7.285,62.148,11.761,62.148c7.079,43.243,39.564,75.401,39.564,75.401s-0.252,30.398-11.307,32.157
	C164.976,357.034,32,415.685,32,480h224h224C480,415.685,347.024,357.034,311.413,351.368z"/>
</svg>
